<?xml version="1.0" encoding="UTF-8"?>
<svg width="100" height="100" version="1.1" viewBox="0 0 26.458 26.458" xmlns="http://www.w3.org/2000/svg">
 <g transform="translate(-1.1438 -269.63)">
  <path class="colorA" d="m2.3618 284.71c3.5364-0.87122 8.568-1.2487 7.3316-0.20328-2.9422 2.4878-0.55375 2.2998-0.86254 5.1112-0.21603 1.4184-0.77396 2.5991-1.343 3.0295-0.8709 0.65871-2.428 0.31552-3.5735 0.13598-1.0842-0.16994-1.7659-1.5357-1.8689-2.149-0.05826-1.5744 0-2.8459 1.2363-4.1238 0.76414-0.78978-1.534-1.6493-0.92006-1.8005z" fill="#80bdff" stroke-width=".23117"/>
  <path class="colorB" d="m6.2366 288.04c0.49485 0 2.0148 4.0833-0.07071 3.9793-2.0855-0.1038-0.42418-3.9793 0.07071-3.9793z" fill="#c4e0fe" stroke-width=".23117"/>
  <g transform="matrix(.26458 0 0 .26458 -.53729 281.29)" fill="none" stroke="#000">
   <path d="m15.715 42.652s-14.25-9.4164 0-24.064c0 0-1.9594-3.4875-7.4815-3.1388 0 0 2.85-3.1388 13.894-3.1388 0 0 9.6191-5.0571 18.169 0 0 0-4.4533 1.5694-7.4815 5.2314"/>
   <path d="m32.867 39.376c0.54021-1.4855 5.0953-14.645-1.1194-19.742"/>
   <path d="m24.938 17.828s1.9875-0.2485 4.2752 0"/>
   <path d="m15.715 26.958s-2.1375 4.3159 0 8.3702"/>
   <path d="m16.784 43.866s3.3845 4.1851 6.4128 0c0 0 3.7407 5.5801 7.4815-1.0463"/>
   <path d="m22.422 13.942 0.05433 1.0372"/>
   <path d="m31.257 13.552 0.03498 1.1037-0.03498-1.1037"/>
  </g>
 </g>
 <path class="colorB" d="m8.4324 20.752s0.49466 1.2747 1.9787 1.9026c1.484 0.62786 1.2938 1.3128 0.64688 1.7314s-0.93226 0.89421-1.7123 0.3044c-0.78007-0.58981-1.1606-0.34248-1.6172-0.0571s-1.1606-0.20928-1.503-1.1606c-0.34248-0.95131-0.55176-1.9977-0.03805-2.6256 0.51369-0.62785 1.503-0.62785 2.2451-0.0951z" fill="#f66" stroke-width=".26458"/>
 <path d="m8.7367 20.929s-1.0084-0.09513-1.7694-0.24734-2.3021 0.41857-1.1796 1.4079 0.57078 1.9026 0.57078 1.9026-0.3615 0.62785 0.60882 0.98934c0.97032 0.3615 1.7504-0.74202 1.7504-0.74202s1.5982 1.2557 2.3021 0.76104c0.70394-0.49466-0.20928-1.9216-0.26635-2.3782" fill="none" stroke="#000" stroke-width=".26458px"/>
 <g transform="rotate(-22.317 9.0922 23.674)">
  <path class="colorA" d="m11.178 20.133s-0.54224-1.5696-0.16172-1.094c0.38052 0.47564 1.094 1.3889 1.3509 1.1986 0.25685-0.19026-1.2177-2.3497-1.817-2.3497-0.59931 0-0.53274 0.74202-0.53274 0.74202s-0.59931-0.50419-1.0179-0.22831c-0.41857 0.27588 0.78007 2.597 1.1701 2.3497 0.39002-0.24733-0.69445-1.427-0.41857-1.3794s1.6077 1.2557 1.427 0.76104z" fill="#fe2222" stroke-width=".26458"/>
  <g fill="none" stroke="#000" stroke-width=".26458px">
   <path d="m10.226 20.526s-0.53273-0.83713-0.87518-0.98934c-0.34245-0.15221-0.51368-1.0845 0.57078-0.68492 1.0845 0.39954 1.3508 1.2747 1.3508 1.2747"/>
   <path d="m10.34 18.3s0.51368-1.0084 1.9406 1.5411"/>
   <path d="m12.699 20.697s1.0654 1.9406-1.2176 2.1499"/>
   <path d="m10.696 21.121v0.26905"/>
   <path d="m12.297 20.798v0.26905"/>
   <path d="m11.328 21.955h1.305"/>
  </g>
 </g>
 <g transform="matrix(.26458 0 0 .26458 14.967 12.134)">
  <path class="colorA" d="m20 26c15.25 0 19.5 14.75 0.5 15.25s-15.75-15.25-0.5-15.25z" fill="#2ae"/>
  <path d="m34.833 35.833s8 3.8334 7.6667-4.5c-0.3281-8.2025-7.5-1.3333-7.5-1.3333" fill="none" stroke="#2ae" stroke-width="2"/>
  <path class="colorA" d="m20 11c18 0.25 16.204 10.215 0 13-16 2.75-16-13.222 0-13z" fill="#2ae"/>
  <path class="colorB" d="m6 25c0-1.6569 1.1193-3 2.5-3s2.5 1.3431 2.5 3-1.1193 3-2.5 3-2.5-1.3431-2.5-3z" fill="#f39"/>
  <path class="colorB" d="m29 22.5c0-1.3807 1.3431-2.5 3-2.5s3 1.1193 3 2.5-1.3431 2.5-3 2.5-3-1.1193-3-2.5z" fill="#f39"/>
  <g fill="none" stroke="#000">
   <path d="m13.5 23.5c-0.72289 0.251-4.4633 3.065-5.6875 2.5-2.0421-0.9425-0.6569-8.3717 0.3125-9.875 2.875-4.4583 6.6791-5.591 8.7083-6.125 3.658-0.9626 10.062-0.48 12.667 2.125 1.0069 1.0069 4.0474 9.5022 2.625 10.688-2.625 2.1875-4.1565-0.3143-4.625-0.8125"/>
   <path d="m9.8125 28.312c-0.0087 0.1216-1.2012 1.7012-1.6875 2.1875-1.2523 1.2523-1.0624 3.9377-0.125 6 2.3308 5.1277 7 2.8333 11.333 3 5.5341 0.2128 9.9397-0.6494 11.333-5.6667 0.8333-3-2-7.5-2-7.5"/>
   <path d="m34.561 29.708 0.56418-1.083c0.3761-0.6017 0.7733-1.2489 1.375-1.625 1.2215-0.7634 4.6722-0.012 5.5 1.3125 0.5415 0.8663 0.3125 2.6592 0.3125 3.6875l-0.4792 2.1667c-0.4343 0.5212-1.8333 3-5.2083 2.1458-0.84003-0.75067-0.83116-0.83235-1.625-1.8125"/>
   <path d="m13.667 18.513 0.1458-1.2006"/>
   <path d="m21.788 18.458 0.22614-1.0844"/>
   <path d="m16.521 23.174c0.6918 0 3.0447 0.03664 4.0069-0.95348"/>
  </g>
 </g>
 <g transform="matrix(.62047 -.78422 .78422 .62047 -217.26 -166.54)">
  <path class="colorA" d="m4.3765 287.16s-0.42031 0.51177-0.7684 1.8208c-0.34809 1.309 0.019233 3.2704-0.32447 3.8485-0.3437 0.57812-1.9807 1.2463-1.346 1.6806 0.63477 0.43432 1.9377 0.16705 2.1047 0.93545 0.16704 0.7684 0.80181 0.95214 1.0524 0.73499 0.25057-0.21716 1.0524-1.3196 1.9544-1.3364 0.90203-0.0167 1.9628 0.47273 2.3501-0.45808 0.74929-1.8011 2.9495-1.5414 2.4942-2.816-0.40533-1.1345-1.6537-0.33409-2.4889-0.85192-0.83522-0.51784-1.8375 0.18374-1.2027 0.85192 0.63477 0.66817 0.51783 1.3196-0.10023 1.3865-0.61806 0.0668-1.5034-0.55125-1.5034-1.8208s-0.55623-2.5641-1.0023-2.7562-0.65147-0.55125-0.71829-0.96885c-0.066817-0.41761-0.31738-0.53454-0.50113-0.25057z" fill="#64ea74"/>
  <path class="colorB" d="m6.7398 295.47s-0.50907-0.27326-0.2084-0.64075c0.30068-0.3675 0.67695 0.0381 1.3531-0.26727 0.67611-0.30539 1.4533-0.25057 1.3196 0.25056-2e-7 0.26727-1.0057 0.79628-1.5026 0.86272-0.49682 0.0664-0.81094-0.13287-0.96175-0.20526z" fill="#ea64de"/>
  <path class="colorB" d="m3.26 290.29s1.5828 2.1261 0.89769 3.5199c0 0-1.5473-1.9962-0.89769-3.5199z" fill="#ea64de"/>
  <g fill="none" stroke="#000" stroke-width=".26458px">
   <path d="m4.5593 293.27s-0.21261 1.4647-0.33073 1.7481c-0.11812 0.28349-0.37798 0.8032 0.63783 1.7245 0 0 0.51972-1.1339 1.252-1.8426"/>
   <path d="m7.2288 295.51s1.7718-0.0945 2.0552-0.77958c0.28348-0.68508 0.94494-2.6222 1.819-2.1497 0.87407 0.47247 1.0394-0.16536 0.85045-0.96856s-1.2993-1.1576-1.819-0.37798"/>
   <path d="m9.7801 291.57s-0.023625-1.252-1.1576-1.1812c-1.1339 0.0709-0.77958 1.2993-0.30711 1.3465s1.1576 1.252-0.18899 1.2284c-1.3465-0.0236-1.6773-0.68508-1.5119-1.9371 0.16536-1.252 0.047247-2.6931-1.4647-2.8348 0 0-0.14697 0.0501-0.20544-0.52616-0.058465-0.5763-0.28397-0.7684-0.52619-0.75169-0.24221 0.0167-0.44267 0.28397-0.45937 1.3781-0.016704 1.0941 0.2902 1.8036 0.54077 1.8203"/>
   <path d="m3.9097 288.77s-0.8032 1.1339-0.74414 2.5041c0.059059 1.3702 1.252 2.7994 1.2284 3.1537"/>
   <path d="m3.2837 292.83s-0.27167 0.66146-0.8032 0.70871c-0.53153 0.0472-0.96856 0.25985-0.87407 0.64964s0.96856 0.73233 2.2088 0.64965"/>
  </g>
  <circle cx="5.5751" cy="290.08" r=".28348"/>
 </g>
 <g transform="rotate(-6.6491 -2270.5 193.19)">
  <g stroke-width=".26458">
   <path class="colorB" d="m24.853 267.78c0.04961 0.21498 0.24805 0.34727 0.26458 0.52917 0.01654 0.1819-0.42995 0.41341-0.04961 0.64492s0.59531-0.57877 0.31419-1.1741c-0.28112-0.59531-0.82682-1.6206-1.3229-1.3229-0.49609 0.29765-1.0383 1.1684-0.79375 1.3229 0.31419 0.19844 1.1576-1.1245 1.3229-0.79375 0.16536 0.33073 0.21497 0.57878 0.26458 0.79375z" fill="#f90"/>
   <path class="colorB" d="m19.561 270.43c-0.13229-0.16537-2.2655-0.33073-2.1167 0.52916 0.14883 0.8599 1.3229 0.26459 1.3229 0.26459s-0.47956 1.1576 0.26458 1.0583c0.74414-0.0992 0.71107-0.51263 0.52917-0.79375s-0.64492 0.678-0.52917 0.26458c0.11576-0.41341 0.26458-0.74414 0-0.79375-0.26458-0.0496-0.66146-0.0992 0-0.26458 0.66146-0.16536 0.66146-0.0992 0.52917-0.26458z" fill="#f90"/>
   <path class="colorA" d="m22.471 271.49c1.9795-1.7982 0.64185-4.3019-1.4503-3.0329-2.4201 1.468-0.52917 4.831 1.4503 3.0329z" fill="#f96"/>
  </g>
  <g transform="matrix(.26458 0 0 .26458 15.465 263.81)" fill="none" stroke="#000">
   <path d="m17.481 21s2.125-6.625 9-4"/>
   <path d="m24.409 31.965s1.1612 5.4122-2.1764 0.51315"/>
   <path d="m32.339 24.76c1.125 1 2.7295 2.0449 2 3-0.63983 0.83769-2.125 0.125-3-1"/>
   <path d="m14.481 24s-0.625 0.875-3 1-5.625 4.625 1 3c0 0-1.125 4 1 3s2-2 2-2"/>
   <path d="m30.481 14s1.625-5.5 3-4 2.875 0.5 3 3 2.875 3.25 0 5"/>
   <path d="m26.754 23.181s-2.6406 2.3276-5 5"/>
  </g>
 </g>
 <path d="m13.591 4.3881 0.53468 0.00799 0.04794 0.53148" fill="none" stroke="#000" stroke-width=".26458px"/>
 <path d="m15.565 3.4233-0.53468-8e-3 -0.04794-0.53148" fill="none" stroke="#000" stroke-width=".26458px"/>
 <g transform="matrix(.99999 0 0 .99999 10.439 -270.53)">
  <path class="colorB" d="m3.3309 290.68 0.574 0.80102 0.77067-0.65172s-1.1321-0.64539-1.3447-0.1493z" fill="#ee9292"/>
  <path class="colorB" d="m7.1815 290.96s0.83863-0.57877 0.93313-0.36616c0.094494 0.21261-0.1466 1.0191-0.1466 1.0191z" fill="#ee9292"/>
  <path class="colorA" d="m4.1562 294.68c0.62753-0.19291 2.9295 0.0271 2.9295 0.0271s1.6483 0.34397 1.9148-7e-3c0.26647-0.35142 1.5473-0.0118 1.5592 0.12993 0.01181 0.14174-1.0276 0.6024-2.0907 0.76776-1.0631 0.16537-2.4687 0.36617-2.5041 0.64965-0.035435 0.28348 0.23624 0.44884 0.93313 0.53153 0.69689 0.0827 1.0725 0.10265 1.3454 0.11629 0.27286 0.0136 0.29648-0.30528-0.32954-0.34072-0.62602-0.0354-1.76-0.1063-1.571-0.24804 0.18899-0.14175 4.1577-0.77958 4.4767-1.1339 0.31892-0.35436-0.24805-0.92132-1.5828-1.0512 0 0-0.22442-2.9652-3.2719-3.662 0 0-1.675 0.18463-2.0364 1.0963-0.36139 0.91169-0.86334 2.9374-0.86334 2.9374 1e-7 0.32348 0.74599 0.29646 1.091 0.18697z" fill="#b785c9"/>
  <g fill="none" stroke="#000" stroke-width=".26458">
   <path d="m3.0652 294.81c-0.12889-1.0193 0.28429-2.1174 0.56884-2.79s1.1919-1.5304 2.1535-1.5846c0.96161-0.0542 3.4266 1.3679 3.2234 4.5101"/>
   <path d="m7.9681 291.62s0.2167-0.63656 0.16253-1.0022c-0.054175-0.36567-0.73972 0.22852-0.73972 0.22852"/>
   <path d="m3.9049 291.48s-0.2167-0.0677-0.41986-0.41985-0.26773-0.52903 0.18236-0.45475c0.45009 0.0743 0.66563 0.30556 0.66563 0.30556"/>
   <path d="m3.7569 294.36s-0.16816 0.21545 0.016661 0.38238c0.18478 0.16698 0.38268-0.0608 0.38268-0.0608"/>
   <path d="m7.0031 294.5s-0.00494 0.29676 0.25905 0.2911c0.26399-6e-3 0.25367-0.27784 0.25367-0.27784"/>
   <path d="m5.1429 292.42s0.3386-0.0135 0.59593 0.0542"/>
  </g>
  <circle cx="4.7036" cy="291.66" r=".17851" style="paint-order:normal"/>
  <circle cx="6.3052" cy="291.57" r=".17261" style="paint-order:normal"/>
  <path d="m9.267 294.35s1.8288 0.0612 1.6514 0.59507c-0.08871 0.26691-1.2966 0.54914-2.571 0.65087-1.2618 0.10072-2.4515 0.40802-2.4788 0.72307-0.054592 0.63007 1.8288 0.28003 2.3748 0.57757" fill="none" stroke="#000" stroke-width=".26458"/>
 </g>
 <g transform="matrix(.98513 .17171 -.17171 .98513 51.941 -286.93)">
  <ellipse class="colorA" cx="4.3014" cy="294" rx="1.2476" ry="1.1081" fill="#e8adad"/>
  <path d="m3.8743 294.77s-1.0394-0.18899-0.89769-1.1103c0.14174-0.92132 1.2757-1.1339 1.819-0.82683 0.54334 0.30711 0.73233 1.3938 0.11812 1.8663-0.61421 0.47247-1.5355-0.0473-1.5355-0.0473" fill="none" stroke="#000" stroke-width=".26458px"/>
  <path d="m3.581 293.96s0.98038 0 1.193-0.0709" fill="none" stroke="#000" stroke-width=".26458px"/>
  <ellipse class="colorA" cx="1.6891" cy="292.97" rx=".38388" ry=".51972" fill="#e8adad"/>
  <path d="m3.26 293.05s-0.51972-1.3229-1.2639-0.48428" fill="none" stroke="#000" stroke-width=".26458px"/>
  <ellipse class="colorA" cx="1.9548" cy="295.25" rx=".46066" ry=".50791" fill="#e8adad"/>
  <circle class="colorB" cx="1.9135" cy="295" r=".11946" fill="#365299"/>
  <g fill="none" stroke="#000">
   <circle cx="1.9608" cy="295.04" r=".35435" stroke-linecap="square" stroke-width=".26458"/>
   <g stroke-width=".26458px">
    <path d="m2.9411 293.73s-0.72052 0.12993-0.93313 0.9095"/>
    <path d="m3.3782 294.65s-0.36616 0.60246-0.90951 0.69695"/>
    <path d="m4.5121 294.9s0.21261 0.46065 0.25986 0.95675"/>
    <path d="m5.2799 294.2s0.77958-0.16537 1.1694 0.21261"/>
   </g>
  </g>
  <ellipse class="colorA" cx="4.1518" cy="291.11" rx=".39569" ry=".38979" fill="#e8adad"/>
  <path d="m3.9333 292.71s-0.12993-0.69689 0.035436-1.3229" fill="none" stroke="#000" stroke-width=".26458px"/>
  <path d="m4.6302 292.74s0.11812-0.75595 0.63783-1.0631" fill="none" stroke="#000" stroke-width=".26458px"/>
  <ellipse class="colorA" cx="6.715" cy="293.57" rx=".46066" ry=".40751" fill="#e8adad"/>
  <g fill="none" stroke="#000">
   <path d="m5.1499 293.18s0.59059-0.74414 1.2757 0.0118" stroke-width=".26458px"/>
   <circle cx="1.76" cy="292.89" r=".35435" stroke-linecap="square" stroke-width=".26458"/>
   <circle cx="3.9215" cy="291.14" r=".35435" stroke-linecap="square" stroke-width=".26458"/>
  </g>
  <g stroke="#000" stroke-linecap="square" stroke-width=".26458">
   <circle class="colorA" cx="5.5161" cy="291.48" r=".35435" fill="#e8adad"/>
   <circle cx="6.6146" cy="293.47" r=".35435" fill="none"/>
   <circle class="colorA" cx="6.7209" cy="294.72" r=".35435" fill="#e8adad"/>
  </g>
  <ellipse class="colorA" cx="4.6775" cy="296.23" rx=".39569" ry=".38979" fill="#e8adad"/>
  <circle cx="4.831" cy="296.23" r=".35435" fill="none" stroke="#000" stroke-linecap="square" stroke-width=".26458"/>
  <circle class="colorA" cx="2.1261" cy="295.44" r=".35435" fill="#e8adad" stroke="#000" stroke-linecap="square" stroke-width=".26458"/>
  <g class="colorB" fill="#365299">
   <circle cx="1.721" cy="292.92" r=".11946"/>
   <circle cx="3.8743" cy="291.15" r=".11946"/>
   <circle cx="2.1734" cy="295.44" r=".11946"/>
   <circle cx="4.8428" cy="296.26" r=".11946"/>
   <circle cx="6.7091" cy="294.68" r=".11946"/>
   <circle cx="6.6146" cy="293.48" r=".11946"/>
   <circle cx="5.5633" cy="291.51" r=".11946"/>
  </g>
 </g>
</svg>
